<?xml version="1.0" standalone="no"?>
<!DOCTYPE svg PUBLIC "-//W3C//DTD SVG 20010904//EN"
 "http://www.w3.org/TR/2001/REC-SVG-20010904/DTD/svg10.dtd">
<svg version="1.0" xmlns="http://www.w3.org/2000/svg"
 width="316.000000pt" height="159.000000pt" viewBox="0 0 316.000000 159.000000"
 preserveAspectRatio="xMidYMid meet">

<g transform="translate(0.000000,159.000000) scale(0.100000,-0.100000)"
fill="#000000" stroke="none">
<path d="M1635 1300 c-173 -10 -222 -39 -262 -153 -16 -46 -18 -88 -18 -352 0
-329 6 -369 63 -437 37 -44 75 -56 204 -68 140 -12 772 -13 930 0 120 9 157
21 194 62 61 66 75 150 75 443 -1 233 -9 316 -35 380 -39 93 -84 114 -275 125
-168 11 -699 10 -876 0z m145 -210 l0 -50 -55 0 -55 0 0 -285 0 -285 -50 0
-50 0 0 285 0 285 -55 0 -55 0 0 50 0 50 160 0 160 0 0 -50z m410 -55 l0 -104
36 24 c59 40 105 29 130 -30 21 -51 20 -375 -1 -416 -28 -53 -78 -59 -137 -17
-28 19 -28 19 -28 -1 0 -18 -6 -21 -45 -21 l-45 0 0 335 0 335 45 0 45 0 0
-105z m455 -79 c42 -28 58 -72 59 -166 l1 -85 -87 -3 -88 -3 0 -62 c0 -65 11
-87 42 -87 22 0 38 29 38 69 0 31 1 31 51 31 l51 0 -7 -47 c-14 -96 -55 -137
-136 -137 -58 0 -95 23 -121 75 -15 28 -18 61 -18 179 0 165 10 198 70 238 40
27 102 26 145 -2z m-785 -196 c0 -224 1 -227 48 -194 21 15 22 20 22 210 l0
194 50 0 50 0 0 -250 0 -250 -50 0 c-48 0 -50 1 -50 27 l0 27 -27 -26 c-35
-32 -63 -41 -95 -29 -41 16 -48 56 -48 287 l0 214 50 0 50 0 0 -210z"/>
<path d="M2201 877 c-8 -10 -11 -59 -9 -163 l3 -149 28 -9 c22 -8 30 -7 38 4
5 8 8 85 6 170 l-2 155 -26 3 c-14 2 -31 -3 -38 -11z"/>
<path d="M2537 883 c-4 -3 -7 -28 -7 -55 l0 -48 40 0 c38 0 40 2 40 29 0 50
-17 81 -43 81 -13 0 -27 -3 -30 -7z"/>
<path d="M344 1123 c3 -10 31 -98 61 -195 l55 -177 0 -141 0 -140 50 0 50 0 0
141 0 141 56 181 c31 100 59 188 62 195 3 8 -10 12 -46 12 l-51 0 -15 -52 c-8
-29 -23 -86 -32 -125 -10 -40 -20 -73 -24 -73 -3 0 -15 39 -28 88 -46 179 -36
162 -93 162 -43 0 -50 -2 -45 -17z"/>
<path d="M763 970 c-80 -18 -93 -53 -94 -249 -1 -176 7 -208 61 -236 43 -22
112 -19 144 6 50 39 56 65 56 229 0 129 -3 156 -19 188 -27 54 -83 77 -148 62z
m65 -92 c8 -8 12 -58 12 -159 0 -158 -5 -174 -52 -167 -23 3 -23 5 -26 158 -1
85 0 160 2 167 7 16 48 17 64 1z"/>
<path d="M1002 741 c3 -209 5 -231 22 -250 26 -29 72 -27 113 5 l33 25 0 -25
c0 -24 3 -26 45 -26 l45 0 0 250 0 250 -45 0 -45 0 0 -193 c0 -175 -2 -196
-18 -210 -22 -20 -48 -22 -54 -4 -2 6 -4 101 -3 210 l1 197 -48 0 -49 0 3
-229z"/>
</g>
</svg>
